<?xml version="1.0" encoding="utf-8"?>
<!-- Generator: Adobe Illustrator 26.0.1, SVG Export Plug-In . SVG Version: 6.00 Build 0)  -->
<svg version="1.1" id="Layer_1" xmlns="http://www.w3.org/2000/svg" xmlns:xlink="http://www.w3.org/1999/xlink" x="0px" y="0px"
	 viewBox="0 0 2254.4 2254.5" style="enable-background:new 0 0 2254.4 2254.5;" xml:space="preserve">
<g>
	<g>
		<g>
			<g>
				<polygon points="1272.1,750.2 1127.2,598.3 1127.2,598.3 1127.2,598.3 1127.2,598.3 1127.2,598.3 982.3,750.2 788.8,638.6 
					788.8,750.1 1127.2,945.5 1127.2,945.5 1127.2,945.5 1127.2,945.5 1127.2,945.5 1465.6,750.1 1465.6,638.6 				"/>
			</g>
			<g>
				<path d="M1463.7,856.7L1127.2,1051L790.7,856.7l-224-129.3V1124c0,247.6,136,403.8,224,478.9c40.7,34.7,71.2,52.2,73.3,53.3
					c-2.2-4.7-73.3-157.9-73.3-301.3c0-130.5,0-239.6,0-239.6l336.5,194.2l336.5-194.2c0,0,0,109.1,0,239.6
					c0,143.4-71.1,296.5-73.3,301.3c2-1.2,32.5-18.6,73.3-53.3c88-75.1,224-231.3,224-478.9V727.4L1463.7,856.7z"/>
			</g>
		</g>
	</g>
</g>
</svg>
